<?xml version="1.0"?>
<svg xmlns="http://www.w3.org/2000/svg" height="512px" version="1.1" viewBox="1 -57 575.959 575" width="512px">
<g id="surface1">
<path d="M 124.800781 403.683594 C 124.800781 414.289062 116.203125 422.882812 105.601562 422.882812 C 94.996094 422.882812 86.398438 414.289062 86.398438 403.683594 C 86.398438 393.078125 94.996094 384.484375 105.601562 384.484375 C 116.203125 384.484375 124.800781 393.078125 124.800781 403.683594 Z M 124.800781 403.683594 " style=" fill-rule:nonzero;fill-opacity:1;" stroke="#FFFFFF" fill="#FFFFFF"/>
<path d="M 480 134.882812 L 464.773438 134.882812 L 401.28125 71.410156 C 400.632812 69.503906 399.816406 67.65625 398.839844 65.898438 C 401.519531 64.195312 403.15625 61.257812 403.199219 58.082031 C 403.167969 26.285156 377.398438 0.515625 345.601562 0.484375 L 268.800781 0.484375 C 237 0.515625 211.230469 26.285156 211.199219 58.082031 C 211.238281 61.253906 212.871094 64.1875 215.539062 65.898438 C 214.5625 67.65625 213.746094 69.503906 213.101562 71.410156 L 149.625 134.882812 L 127.726562 134.882812 C 110.484375 134.851562 95.34375 146.351562 90.75 162.972656 L 59.070312 263.167969 L 17.097656 291.144531 C 6.417969 298.265625 0 310.253906 0 323.09375 L 0 403.683594 C 0 408.984375 4.296875 413.28125 9.601562 413.28125 L 48.863281 413.28125 C 54.132812 444.617188 83.808594 465.746094 115.140625 460.476562 C 139.320312 456.410156 158.269531 437.464844 162.335938 413.28125 L 356.0625 413.28125 C 361.335938 444.617188 391.007812 465.746094 422.339844 460.476562 C 446.523438 456.410156 465.46875 437.464844 469.535156 413.28125 L 508.800781 413.28125 C 514.101562 413.28125 518.398438 408.984375 518.398438 403.683594 L 518.398438 248 L 552.566406 192.484375 L 576 192.484375 L 576 173.285156 L 518.398438 173.285156 C 518.398438 152.074219 501.207031 134.882812 480 134.882812 Z M 399.621094 96.878906 L 437.625 134.882812 L 403.199219 134.882812 L 403.199219 106.082031 C 403.160156 102.914062 401.53125 99.976562 398.863281 98.269531 C 399.121094 97.808594 399.359375 97.347656 399.621094 96.878906 Z M 381.570312 74.097656 C 385.984375 80.714844 384.195312 89.65625 377.578125 94.066406 C 375.214844 95.640625 372.441406 96.480469 369.601562 96.484375 L 359.175781 96.484375 Z M 336 92.507812 L 311.175781 67.683594 L 360.824219 67.683594 Z M 268.800781 19.683594 L 345.601562 19.683594 C 363.101562 19.710938 378.386719 31.542969 382.789062 48.484375 L 231.609375 48.484375 C 236.015625 31.542969 251.296875 19.710938 268.800781 19.683594 Z M 244.800781 67.683594 L 284.027344 67.683594 L 312.824219 96.484375 L 244.800781 96.484375 C 236.847656 96.484375 230.398438 90.035156 230.398438 82.082031 C 230.398438 74.128906 236.847656 67.683594 244.800781 67.683594 Z M 230.398438 115.683594 L 384 115.683594 L 384 134.882812 L 230.398438 134.882812 Z M 214.78125 96.878906 C 215.019531 97.347656 215.28125 97.835938 215.539062 98.269531 C 212.871094 99.976562 211.238281 102.914062 211.199219 106.082031 L 211.199219 134.882812 L 176.773438 134.882812 Z M 101.539062 192.484375 L 134.398438 192.484375 L 134.398438 259.683594 L 80.304688 259.683594 Z M 55.457031 375.480469 C 54.019531 378.042969 52.78125 380.71875 51.761719 383.476562 C 51.675781 383.707031 51.542969 383.90625 51.457031 384.136719 C 51.371094 384.367188 51.339844 384.628906 51.261719 384.855469 C 50.292969 387.648438 49.539062 390.511719 49.007812 393.421875 C 49.007812 393.632812 48.882812 393.832031 48.84375 394.054688 L 19.199219 394.054688 L 19.199219 374.882812 L 55.757812 374.882812 C 55.679688 375.074219 55.546875 375.277344 55.429688 375.480469 Z M 105.601562 442.085938 C 84.527344 442.234375 67.320312 425.269531 67.171875 404.195312 C 67.152344 401.199219 67.484375 398.210938 68.160156 395.292969 C 68.324219 394.5625 68.621094 393.871094 68.824219 393.152344 C 69.402344 391.164062 70.144531 389.230469 71.039062 387.363281 C 71.347656 386.722656 71.710938 386.125 72 385.503906 C 73.085938 383.503906 74.347656 381.609375 75.773438 379.835938 C 76.042969 379.5 76.3125 379.164062 76.597656 378.878906 C 78.449219 376.738281 80.527344 374.808594 82.792969 373.117188 L 82.886719 373.019531 C 89.425781 368.054688 97.394531 365.339844 105.601562 365.285156 C 126.808594 365.285156 144 382.476562 144 403.683594 C 144 424.890625 126.808594 442.085938 105.601562 442.085938 Z M 412.800781 442.085938 C 391.59375 442.085938 374.402344 424.890625 374.402344 403.683594 C 374.402344 382.476562 391.59375 365.285156 412.800781 365.285156 C 420.992188 365.304688 428.953125 367.972656 435.503906 372.886719 L 435.601562 372.984375 C 437.867188 374.675781 439.941406 376.605469 441.792969 378.746094 C 442.082031 379.070312 442.351562 379.40625 442.617188 379.703125 C 444.042969 381.476562 445.304688 383.371094 446.390625 385.371094 C 446.726562 385.992188 447.09375 386.589844 447.351562 387.230469 C 448.226562 389.113281 448.945312 391.066406 449.503906 393.066406 C 449.703125 393.789062 450 394.480469 450.164062 395.207031 C 454.980469 415.726562 442.25 436.261719 421.730469 441.078125 C 418.804688 441.761719 415.804688 442.101562 412.800781 442.085938 Z M 499.199219 394.082031 L 469.605469 394.082031 C 469.605469 393.863281 469.480469 393.660156 469.441406 393.449219 C 468.910156 390.542969 468.15625 387.679688 467.183594 384.886719 C 467.109375 384.65625 467.078125 384.394531 466.992188 384.167969 C 466.90625 383.9375 466.769531 383.734375 466.683594 383.503906 C 465.664062 380.746094 464.429688 378.070312 462.988281 375.507812 C 462.875 375.304688 462.777344 375.105469 462.664062 374.914062 L 499.199219 374.914062 Z M 499.199219 242.566406 L 480 273.765625 L 480 192.484375 L 499.199219 192.484375 Z M 470.402344 173.285156 L 182.402344 173.285156 C 177.097656 173.285156 172.800781 177.582031 172.800781 182.882812 L 172.800781 307.683594 C 172.800781 312.984375 177.097656 317.28125 182.402344 317.28125 L 470.402344 317.28125 C 473.707031 317.242188 476.757812 315.476562 478.4375 312.625 L 478.582031 312.710938 L 499.199219 279.199219 L 499.199219 355.683594 L 444.578125 355.683594 C 443.980469 355.289062 443.367188 354.953125 442.761719 354.578125 L 441.515625 353.820312 C 438.996094 352.371094 436.375 351.113281 433.671875 350.058594 L 432.25 349.527344 C 429.4375 348.507812 426.546875 347.710938 423.609375 347.136719 C 423.226562 347.0625 422.84375 347.023438 422.457031 346.957031 C 416.066406 345.792969 409.515625 345.792969 403.125 346.957031 C 402.738281 347.023438 402.355469 347.0625 401.972656 347.136719 C 399.035156 347.710938 396.144531 348.507812 393.332031 349.527344 L 391.910156 350.058594 C 389.207031 351.113281 386.585938 352.371094 384.066406 353.820312 L 382.820312 354.578125 C 380.308594 356.101562 377.917969 357.808594 375.667969 359.695312 C 375.417969 359.90625 375.199219 360.136719 374.957031 360.347656 C 372.648438 362.339844 370.503906 364.511719 368.546875 366.847656 L 368.441406 366.972656 C 366.503906 369.332031 364.757812 371.84375 363.21875 374.480469 C 363.023438 374.816406 362.804688 375.132812 362.613281 375.441406 C 361.171875 378.003906 359.9375 380.679688 358.914062 383.4375 C 358.734375 383.90625 358.5625 384.394531 358.398438 384.847656 C 357.421875 387.648438 356.664062 390.519531 356.140625 393.4375 C 356.140625 393.648438 356.015625 393.832031 355.980469 394.042969 L 162.402344 394.042969 C 162.402344 393.832031 162.277344 393.648438 162.242188 393.4375 C 161.714844 390.519531 160.960938 387.644531 159.984375 384.847656 C 159.820312 384.367188 159.648438 383.886719 159.464844 383.4375 C 158.445312 380.679688 157.210938 378.003906 155.769531 375.441406 C 155.578125 375.09375 155.355469 374.777344 155.164062 374.480469 C 153.625 371.84375 151.878906 369.335938 149.941406 366.972656 L 149.835938 366.847656 C 147.875 364.511719 145.730469 362.339844 143.425781 360.347656 C 143.183594 360.136719 142.964844 359.90625 142.714844 359.695312 C 140.460938 357.808594 138.070312 356.101562 135.5625 354.578125 L 134.3125 353.820312 C 131.796875 352.371094 129.175781 351.113281 126.46875 350.058594 L 125.046875 349.527344 C 122.234375 348.507812 119.347656 347.710938 116.410156 347.136719 C 116.023438 347.0625 115.640625 347.023438 115.257812 346.957031 C 108.863281 345.792969 102.316406 345.792969 95.921875 346.957031 C 95.539062 347.023438 95.15625 347.0625 94.769531 347.136719 C 91.832031 347.710938 88.945312 348.507812 86.132812 349.527344 L 84.710938 350.058594 C 82.003906 351.113281 79.382812 352.371094 76.867188 353.820312 L 75.617188 354.578125 C 75.011719 354.953125 74.398438 355.289062 73.804688 355.683594 L 19.199219 355.683594 L 19.199219 323.042969 C 19.203125 316.621094 22.410156 310.628906 27.753906 307.066406 L 70.078125 278.882812 L 144 278.882812 C 149.300781 278.882812 153.601562 274.582031 153.601562 269.28125 L 153.601562 182.882812 C 153.601562 177.578125 149.300781 173.28125 144 173.28125 L 107.617188 173.28125 L 109.179688 168.328125 C 111.421875 159.929688 119.03125 154.085938 127.726562 154.082031 L 480 154.082031 C 490.605469 154.082031 499.199219 162.679688 499.199219 173.285156 Z M 264.566406 192.484375 L 460.800781 192.484375 L 460.800781 298.085938 L 199.574219 298.085938 Z M 192 273.765625 L 192 192.484375 L 242.027344 192.484375 Z M 518.398438 211.367188 L 518.398438 192.484375 L 530.027344 192.484375 Z M 518.398438 211.367188 " style=" fill-rule:nonzero;fill-opacity:1;" stroke="#FFFFFF" fill="#FFFFFF"/>
<path d="M 432 403.683594 C 432 414.289062 423.40625 422.882812 412.800781 422.882812 C 402.195312 422.882812 393.601562 414.289062 393.601562 403.683594 C 393.601562 393.078125 402.195312 384.484375 412.800781 384.484375 C 423.40625 384.484375 432 393.078125 432 403.683594 Z M 432 403.683594 " style=" fill-rule:nonzero;fill-opacity:1;" stroke="#FFFFFF" fill="#FFFFFF"/>
<path d="M 115.199219 298.085938 L 153.601562 298.085938 L 153.601562 317.285156 L 115.199219 317.285156 Z M 115.199219 298.085938 " style=" fill-rule:nonzero;fill-opacity:1;" stroke="#FFFFFF" fill="#FFFFFF"/>
<path d="M 182.398438 355.683594 L 336 355.683594 L 336 374.882812 L 182.398438 374.882812 Z M 182.398438 355.683594 " style=" fill-rule:nonzero;fill-opacity:1;" stroke="#FFFFFF" fill="#FFFFFF"/>
</g>
</svg>
